<?xml version="1.0" encoding="utf-8"?>
<!-- Uploaded to: SVG Repo, www.svgrepo.com, Generator: SVG Repo Mixer Tools -->
<svg width="800px" height="800px" viewBox="0 0 1024 1024" class="icon"  version="1.1" xmlns="http://www.w3.org/2000/svg"><path d="M98.771701 928.915962a367.809154 578.401183 45 1 0 817.982797-817.982797 367.809154 578.401183 45 1 0-817.982797 817.982797Z" fill="#f3021eff" /><path d="M57.852177 600.000365l373.832003 373.832003s-200.000122 88.26589-333.54122-45.275209-62.305334-306.542243-40.290783-328.556794zM978.517327 428.453013l-373.832003-373.832004s200.000122-88.26589 333.54122 45.27521 62.305334 306.334558 40.290783 328.556794z" fill="#FFFFFF" /><path d="M941.341811 82.65841c-153.894175-153.894175-471.651377-86.39673-708.411646 150.363539s-304.257714 554.517471-150.363539 708.411646 471.651377 86.39673 708.411646-150.363539 304.257714-554.517471 150.363539-708.411646z m-29.283507 29.283507c67.289761 67.289761 85.358307 171.131984 60.851543 285.566113L626.492191 51.090374c114.43413-24.506765 218.276353-6.230533 285.566113 60.851543z m-650.052316 150.363539a789.200896 789.200896 0 0 1 317.964887-198.546331l175.701041 175.701041-170.093561 170.093562-57.320907-57.320907a20.768445 20.768445 0 0 0-29.491192-2.699898l-2.492213 2.492213a20.768445 20.768445 0 0 0 2.699898 29.491192l57.320907 57.320907-45.067525 43.821418-57.320907-57.320907a20.768445 20.768445 0 0 0-29.491191-2.699898l-2.492214 2.492213a20.768445 20.768445 0 0 0 2.699898 29.491192l57.320907 57.320907-44.029102 44.029102-57.320908-57.320907a20.768445 20.768445 0 0 0-29.491191-2.699897l-2.492213 2.492213a20.768445 20.768445 0 0 0 2.699898 29.491191l57.320907 57.320907-167.393664 167.809033-177.154833-177.154833a792.523847 792.523847 0 0 1 197.923278-313.603513zM111.642449 911.942403c-68.120498-68.120498-85.981361-173.831881-60.020805-290.758224l349.740607 349.740607c-115.472552 27.414347-221.183935 9.138116-289.304433-58.982383z m158.878601-129.595094l167.601348-167.601348 57.320907 57.320907a20.768445 20.768445 0 0 0 29.491192 2.699898l2.492213-2.492214a20.768445 20.768445 0 0 0-2.699898-29.491191l-57.320907-57.320907 43.821418-44.029103 57.320907 57.320907a20.768445 20.768445 0 0 0 29.491192 2.699898l2.492213-2.492213a20.768445 20.768445 0 0 0-2.699898-29.491192l-57.320907-57.320907 44.029103-44.029102 57.320907 57.320907a20.768445 20.768445 0 0 0 29.491191 2.699898l2.492213-2.492214a20.768445 20.768445 0 0 0-2.699897-29.491191l-56.074801-58.567014 170.093562-170.093561 175.701041 175.701041A839.252847 839.252847 0 0 1 448.921989 959.502141z" fill="#20304F" /></svg>